<svg width="25" height="24" viewBox="0 0 25 24" fill="none" xmlns="http://www.w3.org/2000/svg">
<path d="M15.098 3.95005V7.75005H13.598V3.95005C13.598 3.68005 13.358 3.55005 13.198 3.55005C13.148 3.55005 13.098 3.56005 13.048 3.58005L5.11805 6.57005C4.58805 6.77005 4.24805 7.27005 4.24805 7.84005V8.51005C3.33805 9.19005 2.74805 10.28 2.74805 11.51V7.84005C2.74805 6.65005 3.47805 5.59005 4.58805 5.17005L12.528 2.17005C12.748 2.09005 12.978 2.05005 13.198 2.05005C14.198 2.05005 15.098 2.86005 15.098 3.95005Z" fill="white"/>
<path d="M21.7482 14.5V15.5C21.7482 15.77 21.5382 15.99 21.2582 16H19.7982C19.2682 16 18.7882 15.61 18.7482 15.09C18.7182 14.78 18.8382 14.49 19.0382 14.29C19.2182 14.1 19.4682 14 19.7382 14H21.2482C21.5382 14.01 21.7482 14.23 21.7482 14.5Z" fill="white"/>
<path d="M19.728 12.95H20.748C21.298 12.95 21.748 12.5 21.748 11.95V11.51C21.748 9.44 20.058 7.75 17.988 7.75H6.50805C5.65805 7.75 4.87805 8.03 4.24805 8.51C3.33805 9.19 2.74805 10.28 2.74805 11.51V18.24C2.74805 20.31 4.43805 22 6.50805 22H17.988C20.058 22 21.748 20.31 21.748 18.24V18.05C21.748 17.5 21.298 17.05 20.748 17.05H19.878C18.918 17.05 17.998 16.46 17.748 15.53C17.538 14.77 17.788 14.04 18.288 13.55C18.658 13.17 19.168 12.95 19.728 12.95ZM14.248 12.75H7.24805C6.83805 12.75 6.49805 12.41 6.49805 12C6.49805 11.59 6.83805 11.25 7.24805 11.25H14.248C14.658 11.25 14.998 11.59 14.998 12C14.998 12.41 14.658 12.75 14.248 12.75Z" fill="white"/>
</svg>