<svg width="25" height="24" viewBox="0 0 25 24" fill="none" xmlns="http://www.w3.org/2000/svg">
<path d="M17.248 3.5H7.24805C4.24805 3.5 2.24805 5 2.24805 8.5V15.5C2.24805 19 4.24805 20.5 7.24805 20.5H17.248C20.248 20.5 22.248 19 22.248 15.5V8.5C22.248 5 20.248 3.5 17.248 3.5ZM3.99805 8.5C3.99805 6.71 5.45805 5.25 7.24805 5.25H8.74805C9.15805 5.25 9.49805 5.59 9.49805 6C9.49805 6.41 9.15805 6.75 8.74805 6.75H7.24805C6.28805 6.75 5.49805 7.54 5.49805 8.5V10C5.49805 10.41 5.15805 10.75 4.74805 10.75C4.33805 10.75 3.99805 10.41 3.99805 10V8.5ZM8.74805 18.75H7.24805C5.45805 18.75 3.99805 17.29 3.99805 15.5V14C3.99805 13.59 4.33805 13.25 4.74805 13.25C5.15805 13.25 5.49805 13.59 5.49805 14V15.5C5.49805 16.46 6.28805 17.25 7.24805 17.25H8.74805C9.15805 17.25 9.49805 17.59 9.49805 18C9.49805 18.41 9.15805 18.75 8.74805 18.75ZM12.248 15C10.588 15 9.24805 13.66 9.24805 12C9.24805 10.34 10.588 9 12.248 9C13.908 9 15.248 10.34 15.248 12C15.248 13.66 13.908 15 12.248 15ZM20.498 15.5C20.498 17.29 19.038 18.75 17.248 18.75H15.748C15.338 18.75 14.998 18.41 14.998 18C14.998 17.59 15.338 17.25 15.748 17.25H17.248C18.208 17.25 18.998 16.46 18.998 15.5V14C18.998 13.59 19.338 13.25 19.748 13.25C20.158 13.25 20.498 13.59 20.498 14V15.5ZM20.498 10C20.498 10.41 20.158 10.75 19.748 10.75C19.338 10.75 18.998 10.41 18.998 10V8.5C18.998 7.54 18.208 6.75 17.248 6.75H15.748C15.338 6.75 14.998 6.41 14.998 6C14.998 5.59 15.338 5.25 15.748 5.25H17.248C19.038 5.25 20.498 6.71 20.498 8.5V10Z" fill="white"/>
</svg>