<svg width="17" height="17" viewBox="0 0 17 17" fill="none" xmlns="http://www.w3.org/2000/svg">
<path d="M11.8333 2.83337H5.16659C3.16659 2.83337 1.83325 3.83337 1.83325 6.16671V10.8334C1.83325 13.1667 3.16659 14.1667 5.16659 14.1667H11.8333C13.8333 14.1667 15.1666 13.1667 15.1666 10.8334V6.16671C15.1666 3.83337 13.8333 2.83337 11.8333 2.83337ZM2.99992 6.16671C2.99992 4.97337 3.97325 4.00004 5.16659 4.00004H6.16659C6.43992 4.00004 6.66659 4.22671 6.66659 4.50004C6.66659 4.77337 6.43992 5.00004 6.16659 5.00004H5.16659C4.52659 5.00004 3.99992 5.52671 3.99992 6.16671V7.16671C3.99992 7.44004 3.77325 7.66671 3.49992 7.66671C3.22659 7.66671 2.99992 7.44004 2.99992 7.16671V6.16671ZM6.16659 13H5.16659C3.97325 13 2.99992 12.0267 2.99992 10.8334V9.83337C2.99992 9.56004 3.22659 9.33337 3.49992 9.33337C3.77325 9.33337 3.99992 9.56004 3.99992 9.83337V10.8334C3.99992 11.4734 4.52659 12 5.16659 12H6.16659C6.43992 12 6.66659 12.2267 6.66659 12.5C6.66659 12.7734 6.43992 13 6.16659 13ZM8.49992 10.5C7.39325 10.5 6.49992 9.60671 6.49992 8.50004C6.49992 7.39337 7.39325 6.50004 8.49992 6.50004C9.60659 6.50004 10.4999 7.39337 10.4999 8.50004C10.4999 9.60671 9.60659 10.5 8.49992 10.5ZM13.9999 10.8334C13.9999 12.0267 13.0266 13 11.8333 13H10.8333C10.5599 13 10.3333 12.7734 10.3333 12.5C10.3333 12.2267 10.5599 12 10.8333 12H11.8333C12.4733 12 12.9999 11.4734 12.9999 10.8334V9.83337C12.9999 9.56004 13.2266 9.33337 13.4999 9.33337C13.7733 9.33337 13.9999 9.56004 13.9999 9.83337V10.8334ZM13.9999 7.16671C13.9999 7.44004 13.7733 7.66671 13.4999 7.66671C13.2266 7.66671 12.9999 7.44004 12.9999 7.16671V6.16671C12.9999 5.52671 12.4733 5.00004 11.8333 5.00004H10.8333C10.5599 5.00004 10.3333 4.77337 10.3333 4.50004C10.3333 4.22671 10.5599 4.00004 10.8333 4.00004H11.8333C13.0266 4.00004 13.9999 4.97337 13.9999 6.16671V7.16671Z" fill="#A742EB"/>
</svg>
