<svg width="25" height="24" viewBox="0 0 25 24" fill="none" xmlns="http://www.w3.org/2000/svg">
<path d="M20.748 12V18C20.748 20.21 18.958 22 16.748 22H8.74805C6.53805 22 4.74805 20.21 4.74805 18V12C4.74805 11.45 5.19805 11 5.74805 11H7.71805C8.26805 11 8.71805 11.45 8.71805 12V15.14C8.71805 15.88 9.12805 16.56 9.77805 16.91C10.068 17.07 10.388 17.15 10.718 17.15C11.098 17.15 11.478 17.04 11.808 16.82L12.758 16.2L13.638 16.79C14.248 17.2 15.028 17.25 15.678 16.9C16.338 16.55 16.748 15.88 16.748 15.13V12C16.748 11.45 17.198 11 17.748 11H19.748C20.298 11 20.748 11.45 20.748 12Z" fill="#A742EB"/>
<path d="M22.248 7V8C22.248 9.1 21.718 10 20.248 10H5.24805C3.71805 10 3.24805 9.1 3.24805 8V7C3.24805 5.9 3.71805 5 5.24805 5H20.248C21.718 5 22.248 5.9 22.248 7Z" fill="#A742EB"/>
<path d="M12.3878 4.99994H6.86783C6.52783 4.62994 6.53783 4.05994 6.89783 3.69994L8.31783 2.27994C8.68783 1.90994 9.29783 1.90994 9.66783 2.27994L12.3878 4.99994Z" fill="#A742EB"/>
<path d="M18.6181 4.99994H13.0981L15.8181 2.27994C16.1881 1.90994 16.7981 1.90994 17.1681 2.27994L18.5881 3.69994C18.9481 4.05994 18.9581 4.62994 18.6181 4.99994Z" fill="#A742EB"/>
<path d="M14.718 11C15.268 11 15.718 11.45 15.718 12V15.13C15.718 15.93 14.828 16.41 14.168 15.96L13.268 15.36C12.938 15.14 12.508 15.14 12.168 15.36L11.228 15.98C10.568 16.42 9.68799 15.94 9.68799 15.15V12C9.68799 11.45 10.138 11 10.688 11H14.718Z" fill="#A742EB"/>
</svg>