<svg width="33" height="32" viewBox="0 0 33 32" fill="none" xmlns="http://www.w3.org/2000/svg">
<path d="M13.3022 11.2886C13.2872 11.7412 13.3615 12.1923 13.5209 12.6161C13.6802 13.0399 13.9215 13.4282 14.2309 13.7588C14.5403 14.0894 14.9118 14.3558 15.3242 14.5429C15.7366 14.7299 16.1818 14.8338 16.6343 14.8488C17.0869 14.8638 17.538 14.7895 17.9618 14.6301C18.3856 14.4708 18.7739 14.2295 19.1045 13.9201C19.4351 13.6106 19.7015 13.2391 19.8886 12.8268C20.0756 12.4144 20.1795 11.9692 20.1945 11.5166C20.2095 11.0641 20.1352 10.613 19.9758 10.1892C19.8165 9.76534 19.5752 9.37704 19.2658 9.04645C18.9563 8.71586 18.5848 8.44945 18.1725 8.26243C17.7601 8.07541 17.3149 7.97145 16.8624 7.95648C16.4098 7.9415 15.9587 8.01582 15.5349 8.17517C15.111 8.33452 14.7227 8.5758 14.3922 8.88522C14.0616 9.19464 13.7951 9.56614 13.6081 9.97852C13.4211 10.3909 13.3172 10.8361 13.3022 11.2886Z" stroke="#A742EB" stroke-width="1.5" stroke-linecap="round" stroke-linejoin="round"/>
<path d="M23.6443 24.0454C23.0793 22.6846 22.1226 21.5214 20.8951 20.7031C19.6676 19.8848 18.2245 19.448 16.7482 19.448C15.2719 19.448 13.8287 19.8848 12.6012 20.7031C11.3737 21.5214 10.417 22.6846 9.85205 24.0454" stroke="#A742EB" stroke-width="1.5" stroke-linecap="round" stroke-linejoin="round"/>
</svg>