<svg width="21" height="20" viewBox="0 0 21 20" fill="none" xmlns="http://www.w3.org/2000/svg">
<path d="M20.5286 8.74006L19.1686 7.16006C18.9086 6.86006 18.6986 6.30006 18.6986 5.90006V4.20006C18.6986 3.14006 17.8286 2.27006 16.7686 2.27006H15.0686C14.6786 2.27006 14.1086 2.06006 13.8086 1.80006L12.2286 0.440059C11.5386 -0.149941 10.4086 -0.149941 9.70863 0.440059L8.13863 1.81006C7.83863 2.06006 7.26863 2.27006 6.87863 2.27006H5.14863C4.08863 2.27006 3.21863 3.14006 3.21863 4.20006V5.91006C3.21863 6.30006 3.00863 6.86006 2.75863 7.16006L1.40863 8.75006C0.828633 9.44006 0.828633 10.5601 1.40863 11.2501L2.75863 12.8401C3.00863 13.1401 3.21863 13.7001 3.21863 14.0901V15.8001C3.21863 16.8601 4.08863 17.7301 5.14863 17.7301H6.87863C7.26863 17.7301 7.83863 17.9401 8.13863 18.2001L9.71863 19.5601C10.4086 20.1501 11.5386 20.1501 12.2386 19.5601L13.8186 18.2001C14.1186 17.9401 14.6786 17.7301 15.0786 17.7301H16.7786C17.8386 17.7301 18.7086 16.8601 18.7086 15.8001V14.1001C18.7086 13.7101 18.9186 13.1401 19.1786 12.8401L20.5386 11.2601C21.1186 10.5701 21.1186 9.43006 20.5286 8.74006ZM15.1286 8.11006L10.2986 12.9401C10.1586 13.0801 9.96863 13.1601 9.76863 13.1601C9.56863 13.1601 9.37863 13.0801 9.23863 12.9401L6.81863 10.5201C6.52863 10.2301 6.52863 9.75006 6.81863 9.46006C7.10863 9.17006 7.58863 9.17006 7.87863 9.46006L9.76863 11.3501L14.0686 7.05006C14.3586 6.76006 14.8386 6.76006 15.1286 7.05006C15.4186 7.34006 15.4186 7.82006 15.1286 8.11006Z" fill="white"/>
</svg>
