<svg width="24" height="25" viewBox="0 0 24 25" fill="none" xmlns="http://www.w3.org/2000/svg">
<path d="M19 8.5C20.6569 8.5 22 7.15685 22 5.5C22 3.84315 20.6569 2.5 19 2.5C17.3431 2.5 16 3.84315 16 5.5C16 7.15685 17.3431 8.5 19 8.5Z" fill="#A742EB"/>
<path d="M20.34 13.22H17.03C16.1 13.22 15.27 13.74 14.85 14.56L14.05 16.14C13.86 16.52 13.48 16.75 13.06 16.75H9.95C9.66 16.75 9.23 16.69 8.96 16.13L8.17 14.56C7.75 13.73 6.92 13.21 5.99 13.21H2.66C2.3 13.22 2 13.52 2 13.88V16.97C2 20.44 4.07 22.5 7.53 22.5H15.49C18.75 22.5 20.76 20.71 21 17.54V13.88C21 13.52 20.7 13.22 20.34 13.22Z" fill="#A742EB"/>
<path d="M21 10.9V11.83C20.79 11.76 20.57 11.72 20.34 11.72H17.03C15.53 11.72 14.18 12.55 13.52 13.89L12.82 15.26H10.19L9.51 13.9C8.83 12.55 7.49 11.72 5.99 11.72H2.66C2.43 11.72 2.21 11.76 2 11.83V9.02C2 5.97 4.47 3.5 7.52 3.5H13.6C14.24 3.5 14.7 4.08 14.58 4.7C14.42 5.5 14.49 6.37 14.88 7.29C15.33 8.33 16.17 9.17 17.21 9.62C18.13 10.01 19 10.08 19.8 9.92C20.42 9.8 21 10.26 21 10.9Z" fill="#A742EB"/>
</svg>
