<svg width="25" height="24" viewBox="0 0 25 24" fill="none" xmlns="http://www.w3.org/2000/svg">
<path d="M20.0385 14.24C19.7485 14.53 19.2885 14.53 19.0085 14.24C18.7185 13.95 18.7185 13.49 19.0085 13.21C21.0085 11.21 21.0085 7.95998 19.0085 5.96998C17.0085 3.97998 13.7585 3.96998 11.7685 5.96998C9.77853 7.96998 9.76853 11.22 11.7685 13.21C12.0585 13.5 12.0585 13.96 11.7685 14.24C11.4785 14.53 11.0185 14.53 10.7385 14.24C8.16854 11.67 8.16854 7.48998 10.7385 4.92998C13.3085 2.36998 17.4885 2.35998 20.0485 4.92998C22.6085 7.49998 22.6085 11.67 20.0385 14.24Z" fill="white"/>
<path d="M5.89897 9.75998C6.18897 9.46998 6.64897 9.46998 6.92897 9.75998C7.21897 10.05 7.21897 10.51 6.92897 10.79C4.92897 12.79 4.92897 16.04 6.92897 18.03C8.92897 20.02 12.179 20.03 14.169 18.03C16.159 16.03 16.169 12.78 14.169 10.79C13.879 10.5 13.879 10.04 14.169 9.75998C14.459 9.46998 14.919 9.46998 15.199 9.75998C17.769 12.33 17.769 16.51 15.199 19.07C12.629 21.63 8.44897 21.64 5.88897 19.07C3.32897 16.5 3.32897 12.33 5.89897 9.75998Z" fill="white"/>
</svg>
