<svg width="18" height="18" viewBox="0 0 18 18" fill="none" xmlns="http://www.w3.org/2000/svg">
<path d="M11.25 17.0625H6.75C2.6775 17.0625 0.9375 15.3225 0.9375 11.25V6.75C0.9375 2.6775 2.6775 0.9375 6.75 0.9375H11.25C15.3225 0.9375 17.0625 2.6775 17.0625 6.75V9.75C17.0625 10.0575 16.8075 10.3125 16.5 10.3125C16.1925 10.3125 15.9375 10.0575 15.9375 9.75V6.75C15.9375 3.2925 14.7075 2.0625 11.25 2.0625H6.75C3.2925 2.0625 2.0625 3.2925 2.0625 6.75V11.25C2.0625 14.7075 3.2925 15.9375 6.75 15.9375H11.25C11.5575 15.9375 11.8125 16.1925 11.8125 16.5C11.8125 16.8075 11.5575 17.0625 11.25 17.0625Z" fill="white"/>
<path d="M14.2501 17.0625C13.9426 17.0625 13.6876 16.8075 13.6876 16.5V13.3575L13.1476 13.8975C12.9301 14.115 12.5701 14.115 12.3526 13.8975C12.1351 13.68 12.1351 13.32 12.3526 13.1025L13.8526 11.6025C14.0101 11.445 14.2576 11.3925 14.4676 11.4825C14.6776 11.5725 14.8126 11.775 14.8126 12V16.5C14.8126 16.8075 14.5576 17.0625 14.2501 17.0625Z" fill="white"/>
<path d="M15.7501 14.0625C15.6076 14.0625 15.4651 14.01 15.3526 13.8975L13.8526 12.3975C13.6351 12.18 13.6351 11.82 13.8526 11.6025C14.0701 11.385 14.4301 11.385 14.6476 11.6025L16.1476 13.1025C16.3651 13.32 16.3651 13.68 16.1476 13.8975C16.0351 14.01 15.8926 14.0625 15.7501 14.0625Z" fill="white"/>
<path d="M6.67481 12.3675C6.65231 12.3675 6.62981 12.3675 6.61481 12.3675C6.30731 12.33 6.08231 12.0525 6.11981 11.745L6.89981 4.63495C6.93731 4.32745 7.21481 4.10245 7.52231 4.13995C7.82981 4.17745 8.05481 4.45495 8.01731 4.76245L7.22981 11.865C7.19981 12.15 6.95231 12.3675 6.67481 12.3675Z" fill="white"/>
<path d="M9.0376 12.3675C9.0151 12.3675 8.9926 12.3675 8.9776 12.3675C8.6701 12.33 8.4451 12.0525 8.4826 11.745L9.2701 4.64252C9.3076 4.33502 9.5851 4.11002 9.8926 4.14752C10.2001 4.18502 10.4251 4.46252 10.3876 4.77002L9.6001 11.8725C9.5701 12.15 9.3226 12.3675 9.0376 12.3675Z" fill="white"/>
<path d="M12 7.62744H4.89746C4.58996 7.62744 4.33496 7.37244 4.33496 7.06494C4.33496 6.75744 4.58996 6.50244 4.89746 6.50244H12C12.3075 6.50244 12.5625 6.75744 12.5625 7.06494C12.5625 7.37244 12.3075 7.62744 12 7.62744Z" fill="white"/>
<path d="M11.6025 9.99756H4.5C4.1925 9.99756 3.9375 9.74256 3.9375 9.43506C3.9375 9.12756 4.1925 8.87256 4.5 8.87256H11.6025C11.91 8.87256 12.165 9.12756 12.165 9.43506C12.165 9.74256 11.9175 9.99756 11.6025 9.99756Z" fill="white"/>
</svg>
